<svg xmlns="http://www.w3.org/2000/svg" viewBox="0 0 512 512" style="enable-background:new 0 0 512 512" xml:space="preserve"><path d="M339.027 262.919v-41.514h27.676v-55.351h-27.676V124.54h-62.27v-17.876c20.282-8.214 34.595-28.087 34.595-51.313C311.351 24.781 286.571 0 256 0s-55.351 24.781-55.351 55.351c0 23.227 14.312 43.099 34.595 51.313v17.876h-62.27v41.514h-27.676v55.351h27.676v41.514H89.946v138.378h41.514v-96.865h41.513v96.865h26.754v69.189h-41.513V512h83.027V401.297h28.597V512h83.027v-41.513h-41.513v-69.189h27.676v-96.865h41.513v96.865h41.514V262.919h-83.028zM256 41.513c7.63 0 13.838 6.208 13.838 13.838 0 7.63-6.208 13.838-13.838 13.838s-13.838-6.208-13.838-13.838c0-7.63 6.208-13.838 13.838-13.838zm41.514 318.271h-83.027v-55.351h83.027v55.351zm0-96.865h-83.027v-96.865h83.027v96.865z"/></svg>