<svg xmlns="http://www.w3.org/2000/svg" viewBox="0 0 516 516" style="enable-background:new 0 0 516 516" xml:space="preserve"><circle cx="360" cy="222" r="12"/><circle cx="156" cy="222" r="12"/><path d="M458 52H282c0-24-22.2-42.8-42.1-43.9-2.8-4.9-8-8.1-13.9-8.1-8.8 0-16 7.2-16 16s7.2 16 16 16c5.9 0 11-3.2 13.8-7.9 12 1.2 26.2 13.8 26.2 27.9H58c-22 0-40 18-40 40v384c0 22 18 40 40 40h400c22 0 40-18 40-40V92c0-22-18-40-40-40zM298 180c0-4.4 3.6-8 8-8h108c4.4 0 8 3.6 8 8v84c0 4.4-3.6 8-8 8H306c-4.4 0-8-3.6-8-8v-84zm-204 0c0-4.4 3.6-8 8-8h108c4.4 0 8 3.6 8 8v84c0 4.4-3.6 8-8 8H102c-4.4 0-8-3.6-8-8v-84zm356 264c0 13.2-10.8 24-24 24H90c-13.2 0-24-10.8-24-24V340c0-4.4 3.6-8 8-8s8 3.6 8 8v104c0 4.4 3.6 8 8 8h336c4.4 0 8-3.6 8-8V340c0-4.4 3.6-8 8-8s8 3.6 8 8v104z"/></svg>