<svg xmlns="http://www.w3.org/2000/svg" viewBox="0 0 496 496" style="enable-background:new 0 0 496 496" xml:space="preserve"><path d="M104 496h96V288h-96v208zm16-32h16v-16h-16v-16h16v-16h-16v-16h16v-16h-16v-16h16v-16h-16v-16h16v-16h-16v-16h64v16h-16v16h16v16h-16v16h16v16h-16v16h16v16h-16v16h16v16h-16v16h16v16h-64v-16zM296 496h96V288h-96v208zm16-32h16v-16h-16v-16h16v-16h-16v-16h16v-16h-16v-16h16v-16h-16v-16h16v-16h-16v-16h64v16h-16v16h16v16h-16v16h16v16h-16v16h16v16h-16v16h16v16h-16v16h16v16h-64v-16zM200 64c-17.648 0-32 14.352-32 32s14.352 32 32 32h96c17.648 0 32-14.352 32-32s-14.352-32-32-32h-96zm112 32c0 8.816-7.184 16-16 16h-96c-8.824 0-16-7.184-16-16s7.176-16 16-16h96c8.816 0 16 7.184 16 16zM408 40h88v16h-88zM408 72h88v16h-88zM408 104h56v16h-56zM480 104h16v16h-16zM48 128c26.472 0 48-21.528 48-48S74.472 32 48 32 0 53.528 0 80s21.528 48 48 48zm8-78.864C67.192 52.04 75.952 60.808 78.864 72H56V49.136zm-16 0V88h38.864C75.288 101.76 62.872 112 48 112c-17.648 0-32-14.352-32-32 0-14.872 10.232-27.288 24-30.864z"/><path d="M456 184c-9.04 0-17.296 3.128-24 8.208V192h-72v-41.056l36.44-24.288-8.872-13.312L360 131.72V112C360 50.24 309.76 0 248 0S136 50.24 136 112v19.72l-27.56-18.376-8.872 13.312L136 150.944V192H64v.208C57.296 187.128 49.04 184 40 184c-22.056 0-40 17.944-40 40 0 9.04 3.128 17.296 8.208 24H8v120h24v32h16v-32h24V256h64v16h80v160h64V272h80v-16h64v112h24v32h16v-32h24V248h-.208c5.08-6.704 8.208-14.96 8.208-24 0-22.056-17.944-40-40-40zM56 352H24v-16h32v16zm0-32H24v-59.392c4.912 2.16 10.304 3.392 16 3.392s11.088-1.232 16-3.392V320zm-16-72c-13.232 0-24-10.768-24-24s10.768-24 24-24 24 10.768 24 24-10.768 24-24 24zm96-8H76.608C78.76 235.088 80 229.696 80 224s-1.24-11.088-3.392-16H136v32zm208-97.616-52.44 34.96 8.872 13.312L344 161.616V256h-80v160h-32V256h-80v-94.384l43.56 29.04 8.872-13.312L152 142.384V112c0-52.936 43.064-96 96-96s96 43.064 96 96v30.384zM419.392 240H360v-32h59.392c-2.16 4.912-3.392 10.304-3.392 16s1.232 11.088 3.392 16zM472 352h-32v-16h32v16zm0-32h-32v-59.392c4.912 2.16 10.304 3.392 16 3.392s11.088-1.232 16-3.392V320zm-16-72c-13.232 0-24-10.768-24-24s10.768-24 24-24 24 10.768 24 24-10.768 24-24 24z"/></svg>