<svg xmlns="http://www.w3.org/2000/svg" viewBox="0 0 277.4 277.4" style="enable-background:new 0 0 277.4 277.4" xml:space="preserve"><path d="M252.5 259.9V102.4c0-9.6-7.9-17.5-17.5-17.5h-9.7C224.4 37.6 186.2 0 138.7 0 91.2 0 53 37.6 52.1 84.9h-9.7c-9.6 0-17.5 7.9-17.5 17.5v157.5c-5.3 0-8.8 3.5-8.8 8.8 0 5.3 3.5 8.8 8.8 8.8h26.3c5.3 0 8.8-3.5 8.8-8.8 0-5.3-3.5-8.8-8.8-8.8l.9-17.5v.9h26.3L95 259.9h87.5l16.6-16.6h26.3v-.9l.9 17.5c-5.3 0-8.8 3.5-8.8 8.8 0 5.3 3.5 8.8 8.8 8.8h26.3c5.3 0 8.8-3.5 8.8-8.8-.2-5.3-3.7-8.8-8.9-8.8zM138.7 23.6c9.6 0 17.5 7.9 17.5 17.5s-7.9 17.5-17.5 17.5-17.5-7.9-17.5-17.5 7.9-17.5 17.5-17.5zm43.8 140v17.5H94.9v-17.5h87.6zm-87.6-17.5v-17.5h87.5v17.5H94.9zm87.6 52.5v17.5H94.9v-17.5h87.6zM59.1 102.4l.9-17.5h157.5l.9 17.5H59.1z"/></svg>