<svg xmlns="http://www.w3.org/2000/svg" viewBox="0 0 502.4 502.4" style="enable-background:new 0 0 502.4 502.4" xml:space="preserve"><path d="m67.2 248 32-32-37.6-52.8-44.8 45.6 34.4 34.4v94.9c-12.4 7-20.8 20.3-20.8 35.5 0 22.4 18.4 40.8 40.8 40.8v-81.6c-1.3 0-2.7.1-4 .2v-85z"/><circle transform="rotate(-45.001 87.198 251.202)" cx="87.2" cy="251.2" r="6.4"/><circle transform="rotate(-13.286 107.171 251.152)" cx="107.2" cy="251.2" r="6.4"/><path d="M451.2 338.1v-94.9l34.4-34.4-44.8-45.6-37.6 52.8 32 32v85c-1.3-.1-2.7-.2-4-.2v81.6c22.4 0 40.8-18.4 40.8-40.8 0-15.1-8.4-28.5-20.8-35.5z"/><circle transform="rotate(-13.286 415.108 251.16)" cx="415.2" cy="251.2" r="6.4"/><circle transform="rotate(-45.001 395.199 251.206)" cx="395.2" cy="251.2" r="6.4"/><path d="M403.2 465.6c-.4-8.4-7.4-14.4-15.2-14.4h-3.2c0-36.8-15.7-70.7-40.9-95.1l24.9-24.9-36-35.7L455.2 116 251.2 0l-204 116 122.6 179.9-36 36 24.4 24.4c-24.5 23.8-40 56.7-40.7 92.5l-2.4 2.4h-.8c-8.8 0-15.2 7.2-15.2 15.2-.1 1.4 0 2.8.2 4.1 1.2 7.5 7.8 12.7 15 12.7h31.8c8.2 7.2 22.1 12 37.8 12 10.8 0 20.6-2.1 28.3-5.8 8 7.8 22.4 13 38.9 13 16.8 0 31.2-5.2 39.1-13 7.7 3.6 17.5 5.8 28.1 5.8 16.1 0 29.9-4.7 38-12H388c8.8 0 15.1-7.1 15.2-15.1.1-.8.1-1.7 0-2.5zm-256-38.4c0 .8-3.2 1.6-4 1.6s-4-.8-4-1.6v-24c0-.8 3.2-1.6 4-1.6s4 .8 4 1.6v24zm16 0c0 .8-3.2 1.6-4 1.6s-4-.8-4-1.6v-24c0-.8 3.2-1.6 4-1.6s4 .8 4 1.6v24zm72-363.2 16-8 16 8v16l-16 8-16-8V64zm-56 363.2c0 .8-3.2 1.6-4 1.6s-4-.8-4-1.6v-24c0-.8 3.2-1.6 4-1.6s4 .8 4 1.6v24zm5-145.7-25.8-75.1-77.6-43.2 106.4 16-1.5 100.9-1.5 1.4zm11 145.7c0 .8-3.2 1.6-4 1.6s-4-.8-4-1.6v-24c0-.8 3.2-1.6 4-1.6s4 .8 4 1.6v24zm56-184c-3.5 0-6.4-2.9-6.4-6.4 0-3.5 2.9-6.4 6.4-6.4s6.4 2.9 6.4 6.4c0 3.5-2.9 6.4-6.4 6.4zm0-27.2c-3.5 0-6.4-2.9-6.4-6.4s2.9-6.4 6.4-6.4 6.4 2.9 6.4 6.4-2.9 6.4-6.4 6.4zm0-28c-3.5 0-6.4-2.9-6.4-6.4s2.9-6.4 6.4-6.4 6.4 2.9 6.4 6.4-2.9 6.4-6.4 6.4zM136 139.2l-16-24h262.4l-16 24H136zm179.2 288c0 .8-3.2 1.6-4 1.6s-4-.8-4-1.6v-24c0-.8 3.2-1.6 4-1.6s4 .8 4 1.6v24zm1.5-147.7-1.5-100.3L420.8 164l-76 42.4-26.2 74.9-1.9-1.8zm14.5 147.7c0 .8-3.2 1.6-4 1.6s-4-.8-4-1.6v-24c0-.8 3.2-1.6 4-1.6s4 .8 4 1.6v24zm16 0c0 .8-3.2 1.6-4 1.6s-4-.8-4-1.6v-24c0-.8 3.2-1.6 4-1.6s4 .8 4 1.6v24zm16 0c0 .8-3.2 1.6-4 1.6s-4-.8-4-1.6v-24c0-.8 3.2-1.6 4-1.6s4 .8 4 1.6v24z"/></svg>