<svg xmlns="http://www.w3.org/2000/svg" viewBox="0 0 462 462" style="enable-background:new 0 0 462 462" xml:space="preserve"><path d="M167 142c4.1 0 7.5-3.4 7.5-7.5v-8c0-4.1-3.4-7.5-7.5-7.5s-7.5 3.4-7.5 7.5v8c0 4.1 3.4 7.5 7.5 7.5zM295 142c4.1 0 7.5-3.4 7.5-7.5v-8c0-4.1-3.4-7.5-7.5-7.5s-7.5 3.4-7.5 7.5v8c0 4.1 3.4 7.5 7.5 7.5z"/><path d="M382.5 336.2v-67.5c9.3-3.1 16-11.9 16-22.3 0-13-10.5-23.5-23.5-23.5h-34.1c10.8-10.1 17.6-24.5 17.6-40.5v-80c0-30.6-24.9-55.5-55.5-55.5h-24.5v-20c4.2-2.5 7-7.1 7-12.4C285.5 6.5 279 0 271 0s-14.5 6.5-14.5 14.5c0 5.2 2.8 9.8 7 12.4V47h-65V26.9c4.2-2.5 7-7.1 7-12.4C205.5 6.5 199 0 191 0s-14.5 6.5-14.5 14.5c0 5.2 2.8 9.8 7 12.4V47H159c-30.6 0-55.5 24.9-55.5 55.5v80c0 16 6.8 30.4 17.6 40.5H87c-13 0-23.5 10.5-23.5 23.5 0 10.3 6.7 19.1 16 22.3v67.5c-9.3 3.1-16 11.9-16 22.3v16c0 4.1 3.4 7.5 7.5 7.5s7.5-3.4 7.5-7.5v-16c0-4.7 3.8-8.5 8.5-8.5s8.5 3.8 8.5 8.5v16c0 4.1 3.4 7.5 7.5 7.5s7.5-3.4 7.5-7.5v-16c0-10.3-6.7-19.1-16-22.3V270h33v72.5c0 13 10.5 23.5 23.5 23.5h9.4c1.2 5.1 3.7 9.7 7.1 13.4V415H159c-21.8 0-39.5 17.7-39.5 39.5 0 4.1 3.4 7.5 7.5 7.5h88c4.1 0 7.5-3.4 7.5-7.5v-32c0-4.1-3.4-7.5-7.5-7.5h-.5v-35.6c3.4-3.8 5.8-8.4 7.1-13.4h18.8c1.2 5.1 3.7 9.7 7.1 13.4V415h-.5c-4.1 0-7.5 3.4-7.5 7.5v32c0 4.1 3.4 7.5 7.5 7.5h88c4.1 0 7.5-3.4 7.5-7.5 0-21.8-17.7-39.5-39.5-39.5h-8.5v-35.6c3.4-3.8 5.8-8.4 7.1-13.4h9.4c13 0 23.5-10.5 23.5-23.5V270h33v66.2c-9.3 3.1-16 11.9-16 22.3v16c0 4.1 3.4 7.5 7.5 7.5s7.5-3.4 7.5-7.5v-16c0-4.7 3.8-8.5 8.5-8.5s8.5 3.8 8.5 8.5v16c0 4.1 3.4 7.5 7.5 7.5s7.5-3.4 7.5-7.5v-16c0-10.3-6.7-19.1-16-22.3zM375 255c-4.7 0-8.5-3.8-8.5-8.5s3.8-8.5 8.5-8.5 8.5 3.8 8.5 8.5-3.8 8.5-8.5 8.5zM118.5 102.5c0-22.3 18.2-40.5 40.5-40.5h144c22.3 0 40.5 18.2 40.5 40.5v48c0 8.2-16.2 16.6-30 21.2C291.6 179 262.3 183 231 183s-60.6-4-82.5-11.3c-13.8-4.6-30-12.9-30-21.2v-48zm0 80V174c6 4.1 14.1 8.2 25.3 11.9 23.4 7.8 54.4 12.1 87.2 12.1s63.8-4.3 87.2-12.1c11.1-3.7 19.3-7.8 25.3-11.9v8.5c0 22.3-18.2 40.5-40.5 40.5H159c-22.3 0-40.5-18.2-40.5-40.5zM87 238c4.7 0 8.5 3.8 8.5 8.5S91.7 255 87 255s-8.5-3.8-8.5-8.5 3.8-8.5 8.5-8.5zm21.9 17c1-2.6 1.6-5.5 1.6-8.5s-.6-5.9-1.6-8.5h18.6v17h-18.6zm98.6 192h-71.8c3.2-9.9 12.4-17 23.3-17h48.5v17zm-25-32v-26.2c2.7.8 5.6 1.2 8.5 1.2s5.8-.4 8.5-1.2V415h-17zm8.5-40c-6.4 0-11.9-3.7-14.7-9h29.4c-2.8 5.3-8.3 9-14.7 9zm135.3 72h-71.8v-17H303c10.9 0 20.2 7.1 23.3 17zm-63.8-32v-26.2c2.7.8 5.6 1.2 8.5 1.2s5.8-.4 8.5-1.2V415h-17zm8.5-40c-6.4 0-11.9-3.7-14.7-9h29.4c-2.8 5.3-8.3 9-14.7 9zm48.5-32.5c0 4.7-3.8 8.5-8.5 8.5H151c-4.7 0-8.5-3.8-8.5-8.5v-107c5.2 1.6 10.8 2.5 16.5 2.5h144c5.7 0 11.3-.9 16.5-2.5v107zm15-104.5h18.6c-1 2.6-1.6 5.5-1.6 8.5s.6 5.9 1.6 8.5h-18.6v-17z"/><path d="M231 263c-17.4 0-31.5 14.1-31.5 31.5S213.6 326 231 326s31.5-14.1 31.5-31.5S248.4 263 231 263zm0 48c-9.1 0-16.5-7.4-16.5-16.5S221.9 278 231 278s16.5 7.4 16.5 16.5S240.1 311 231 311zM175 271c-4.1 0-7.5 3.4-7.5 7.5v32c0 4.1 3.4 7.5 7.5 7.5s7.5-3.4 7.5-7.5v-32c0-4.1-3.4-7.5-7.5-7.5zM287 271c-4.1 0-7.5 3.4-7.5 7.5v32c0 4.1 3.4 7.5 7.5 7.5s7.5-3.4 7.5-7.5v-32c0-4.1-3.4-7.5-7.5-7.5z"/></svg>