<svg xmlns="http://www.w3.org/2000/svg" viewBox="0 0 32 32" style="enable-background:new 0 0 32 32" xml:space="preserve"><path d="M24.7 28.3h-3.1v-3.8c1.4-.9 2.6-2.1 3.4-3.6H7c.8 1.4 2 2.7 3.4 3.6v3.8H7.3c-1 0-1.9.8-1.9 1.9S6.3 32 7.3 32h4.2c1 0 1.9-.8 1.9-1.9v-4.3c.8.2 1.7.3 2.6.3.9 0 1.8-.1 2.6-.3V30.2c0 1 .8 1.9 1.9 1.9h4.2c1 0 1.9-.8 1.9-1.9-.1-1.1-.9-1.9-1.9-1.9zM12.9 16.7c.7 0 1.3-.6 1.3-1.3 0-.7-.6-1.3-1.3-1.3h-.2c.1.1.2.3.2.5 0 .4-.4.8-.8.8-.2 0-.4-.1-.5-.2v.2c0 .7.6 1.3 1.3 1.3z"/><path d="M7.2 17.4c0 .8.1 1.5.3 2.2h17c.2-.7.3-1.4.3-2.2 0-3.6-2.4-6.7-5.8-7.9.1-.2.1-.4.1-.7 0-.5-.1-.9-.4-1.3l1.8-3.4h.4c1.2 0 2.1-.9 2.1-2.1 0-1.1-.9-2-2.1-2-1.2 0-2.1.9-2.1 2.1 0 .5.2 1 .5 1.4l-1.7 3.3c-.2-.1-.5-.1-.8-.1h-1.6c-.3 0-.6.1-.8.1l-1.7-3.3c.3-.4.5-.9.5-1.4 0-1.2-.9-2.1-2.1-2.1C9.9 0 9 .9 9 2.1c0 1.2.9 2.1 2.1 2.1h.4l1.8 3.4c-.3.4-.4.8-.4 1.3 0 .2 0 .4.1.7-3.4 1.1-5.8 4.2-5.8 7.8zm11.9-4.5c1.4 0 2.5 1.1 2.5 2.5s-1.1 2.5-2.5 2.5-2.5-1.1-2.5-2.5 1.1-2.5 2.5-2.5zm-6.2 0c1.4 0 2.5 1.1 2.5 2.5s-1.1 2.5-2.5 2.5-2.5-1.1-2.5-2.5 1.1-2.5 2.5-2.5z"/><path d="M19.1 16.7c.7 0 1.3-.6 1.3-1.3v-.2c-.1.1-.3.2-.5.2-.4 0-.8-.4-.8-.8 0-.2.1-.3.2-.5h-.2c-.7 0-1.3.6-1.3 1.3 0 .7.6 1.3 1.3 1.3z"/></svg>