<svg xmlns="http://www.w3.org/2000/svg" viewBox="0 0 512 512" style="enable-background:new 0 0 512 512" xml:space="preserve"><path d="M406.6 225.9h-60.2v-52.7h45.2V128h-45.2V45.2h-45.2C301.2 20.2 281 0 256 0s-45.2 20.2-45.2 45.2h-45.2V128h-45.2v45.2h45.2v52.7h-60.2l55.2 165.6h-25.1V512h60.2v-60.2h120.5V512h60.2V391.5h-25.1l55.3-165.6zM256 82.8c12.5 0 22.6 10.1 22.6 22.6 0 12.5-10.1 22.6-22.6 22.6-12.5 0-22.6-10.1-22.6-22.6 0-12.5 10.1-22.6 22.6-22.6zm0 120.5c-16.6 0-30.1-13.5-30.1-30.1h60.2c0 16.6-13.5 30.1-30.1 30.1z"/></svg>