<svg xmlns="http://www.w3.org/2000/svg" viewBox="0 0 512 512" style="enable-background:new 0 0 512 512" xml:space="preserve"><path d="M168.229 394.971v58.515H153.6V512h87.771V394.971zM343.771 453.486v-58.515h-73.142V512H358.4v-58.514z"/><path d="M124.343 248.686h43.886v146.286h-43.886zM343.771 248.686h43.886v146.286h-43.886zM343.771 146.286V102.4h-65.829V81.886c13.113-7.589 21.943-21.76 21.943-38.001C299.886 19.649 280.237 0 256 0s-43.886 19.649-43.886 43.886c0 16.241 8.83 30.411 21.943 38.001V102.4h-65.829v43.886h-29.257V204.8h29.257v43.886h175.543V204.8h29.257v-58.514h-29.257zm-131.657 43.885c-8.079 0-14.629-6.549-14.629-14.629s6.549-14.629 14.629-14.629c8.079 0 14.629 6.549 14.629 14.629s-6.549 14.629-14.629 14.629zM256 58.514c-8.079 0-14.629-6.551-14.629-14.629S247.92 29.256 256 29.256s14.629 6.551 14.629 14.629c0 8.079-6.55 14.629-14.629 14.629zm43.886 131.657c-8.079 0-14.629-6.549-14.629-14.629s6.549-14.629 14.629-14.629c8.079 0 14.629 6.549 14.629 14.629s-6.55 14.629-14.629 14.629zM296.306 307.226l-27.851-4.046L256 277.943l-12.455 25.237-27.851 4.046 20.154 19.645-4.758 27.737L256 341.513l24.91 13.095-4.758-27.737z"/></svg>