<svg xmlns="http://www.w3.org/2000/svg" viewBox="0 0 512 512" style="enable-background:new 0 0 512 512" xml:space="preserve"><path d="M482.2 352.8c-3.7-8.5-9.4-15.7-16.6-21.1l8.5-111.7L355.5 81.8h-44.1c2.7-6.9 4.3-14.3 4.3-22.2C315.6 26.7 288.9 0 256 0c-32.9 0-59.6 26.7-59.6 59.6 0 7.8 1.5 15.3 4.3 22.2h-44.1L37.9 220.1l8.5 111.7C28 345.6 20.3 370.5 29.1 393c3.6 9.1 9.7 17 17.7 22.9L67 388.4c-2.9-2.1-5-4.8-6.2-8-3.7-9.4.9-20.1 10.3-23.8 9.4-3.7 20.1.9 23.8 10.3 1.2 3.2 1.5 6.5.9 10.1l33.5 6.2c1.8-9.8.9-19.7-2.7-28.8-6.6-16.7-21-28.2-37.3-31.9L107 238l61.4-58.1 19.2 156.7h-22.4l4.2 141.3h-25.3V512h223.7v-34.1h-25.3l4.2-141.3h-22.4l19.2-156.7 61.4 58.1 17.7 84.5c-3.2.7-6.3 1.7-9.4 3.1-12.9 5.6-22.8 15.8-27.9 28.8-3.6 9.1-4.5 19-2.7 28.8l33.5-6.2c-.7-3.5-.4-6.9.9-10.1 1.8-4.6 5.3-8.2 9.8-10.1 4.5-2 9.5-2 14.1-.2s8.2 5.3 10.1 9.8c2 4.5 2 9.5.2 14.1-1.2 3.2-3.3 5.8-6.2 8l20.2 27.5c8-5.9 14.1-13.8 17.7-22.9 5.1-13.2 4.8-27.4-.7-40.3zM256.6 477.9h-29l3.5-116.3h50l3.5 116.3h-28z"/></svg>