<svg xmlns="http://www.w3.org/2000/svg" viewBox="0 0 512 512" style="enable-background:new 0 0 512 512" xml:space="preserve"><circle cx="221.091" cy="104.727" r="11.636"/><circle cx="290.909" cy="104.727" r="11.636"/><path d="M442.182 304.687v-60.323c0-19.247-15.663-34.909-34.909-34.909h-37.05c-4.817-13.51-17.617-23.273-32.768-23.273h-162.91c-15.151 0-27.951 9.763-32.768 23.273h-37.05c-19.247 0-34.909 15.663-34.909 34.909v60.323c-13.51 4.817-23.273 17.617-23.273 32.768a11.625 11.625 0 0 0 11.636 11.636 11.625 11.625 0 0 0 11.636-11.636c0-6.423 5.213-11.636 11.636-11.636s11.636 5.213 11.636 11.636a11.625 11.625 0 0 0 11.636 11.636 11.625 11.625 0 0 0 11.636-11.636c0-15.151-9.763-27.951-23.273-32.768v-60.323c0-6.423 5.213-11.636 11.636-11.636h34.909v104.727c0 19.247 15.663 34.909 34.909 34.909h11.636v81.455a11.625 11.625 0 0 0 11.636 11.636 11.625 11.625 0 0 0 11.636-11.636v-81.455h58.182a11.625 11.625 0 0 0 11.636-11.636 11.625 11.625 0 0 0-11.636-11.636h-93.091c-6.423 0-11.636-5.213-11.636-11.636V221.091c0-6.423 5.213-11.636 11.636-11.636H337.45c6.423 0 11.636 5.213 11.636 11.636v116.364c0 6.423-5.213 11.636-11.636 11.636h-23.273a11.625 11.625 0 0 0-11.636 11.636v93.091a11.625 11.625 0 0 0 11.636 11.636 11.625 11.625 0 0 0 11.636-11.636v-81.455h11.636c19.247 0 34.909-15.663 34.909-34.909V232.727h34.909c6.423 0 11.636 5.213 11.636 11.636v60.323c-13.51 4.817-23.273 17.617-23.273 32.768a11.625 11.625 0 0 0 11.636 11.636 11.625 11.625 0 0 0 11.636-11.636c0-6.423 5.213-11.636 11.636-11.636 6.423 0 11.636 5.213 11.636 11.636 0 6.435 5.201 11.636 11.636 11.636s11.636-5.201 11.636-11.636c.009-15.15-9.754-27.95-23.264-32.767zM314.182 46.545h-1.175C307.596 20.026 284.09 0 256 0c-28.09 0-51.596 20.026-57.007 46.545h-1.175c-32.081 0-58.182 26.1-58.182 58.182 0 32.081 26.1 58.182 58.182 58.182h116.364c32.081 0 58.182-26.1 58.182-58.182 0-32.081-26.101-58.182-58.182-58.182zM256 23.273c15.151 0 27.951 9.763 32.768 23.273h-65.524c4.805-13.51 17.605-23.273 32.756-23.273zm58.182 116.363H197.818c-19.247 0-34.909-15.663-34.909-34.909 0-19.247 15.663-34.909 34.909-34.909h116.364c19.247 0 34.909 15.663 34.909 34.909 0 19.247-15.663 34.909-34.909 34.909z"/><path d="M256 232.727a11.625 11.625 0 0 0-11.636 11.636v23.273A11.625 11.625 0 0 0 256 279.272a11.625 11.625 0 0 0 11.636-11.636v-23.273A11.626 11.626 0 0 0 256 232.727zM302.545 232.727a11.625 11.625 0 0 0-11.636 11.636v23.273a11.625 11.625 0 0 0 11.636 11.636 11.625 11.625 0 0 0 11.636-11.636v-23.273a11.625 11.625 0 0 0-11.636-11.636zM209.454 232.727a11.625 11.625 0 0 0-11.636 11.636v23.273a11.625 11.625 0 0 0 11.636 11.636 11.625 11.625 0 0 0 11.636-11.636v-23.273a11.625 11.625 0 0 0-11.636-11.636zM256 395.636c-19.247 0-34.909 15.663-34.909 34.909v46.545c0 19.247 15.662 34.91 34.909 34.91s34.909-15.663 34.909-34.909v-46.545c0-19.247-15.663-34.91-34.909-34.91zm11.636 81.455c0 6.423-5.213 11.636-11.636 11.636s-11.636-5.213-11.636-11.636v-46.545c0-6.423 5.213-11.636 11.636-11.636s11.636 5.213 11.636 11.636v46.545z"/></svg>