<svg xmlns="http://www.w3.org/2000/svg" viewBox="0 0 463 463" style="enable-background:new 0 0 463 463" xml:space="preserve"><path d="M207.5 127a7.5 7.5 0 0 0 7.5-7.5v-8c0-4.142-3.357-7.5-7.5-7.5s-7.5 3.358-7.5 7.5v8a7.5 7.5 0 0 0 7.5 7.5zM255.5 127a7.5 7.5 0 0 0 7.5-7.5v-8c0-4.142-3.357-7.5-7.5-7.5s-7.5 3.358-7.5 7.5v8a7.5 7.5 0 0 0 7.5 7.5z"/><path d="M386.854 312.792 375 306.865v-69.099c9.29-3.138 16-11.93 16-22.266 0-12.958-10.542-23.5-23.5-23.5H335v-8.5a7.5 7.5 0 0 0-7.5-7.5H311v-40.5c0-26.05-12.595-49.213-32.014-63.721.003-.093.014-.185.014-.279V45.766c9.29-3.138 16-11.93 16-22.266C295 10.542 284.458 0 271.5 0S248 10.542 248 23.5c0 10.336 6.71 19.128 16 22.266v17.209C254.07 58.507 243.076 56 231.5 56s-22.57 2.507-32.5 6.975V45.766c9.29-3.138 16-11.93 16-22.266C215 10.542 204.458 0 191.5 0S168 10.542 168 23.5c0 10.336 6.71 19.128 16 22.266V71.5c0 .094.011.186.014.279C164.595 86.287 152 109.45 152 135.5V176h-16.5a7.5 7.5 0 0 0-7.5 7.5v8.5H95.5C82.542 192 72 202.542 72 215.5c0 10.336 6.71 19.128 16 22.266v69.099l-11.854 5.927A7.5 7.5 0 0 0 72 319.5v24a7.499 7.499 0 0 0 4.146 6.708l16 8a7.502 7.502 0 0 0 6.709-13.416L87 338.865v-14.729l8.5-4.25 8.5 4.25V335.5c0 4.142 3.357 7.5 7.5 7.5s7.5-3.358 7.5-7.5v-16a7.499 7.499 0 0 0-4.146-6.708L103 306.865V239h25v32.5c0 26.05 12.595 49.213 32.014 63.721-.003.093-.014.185-.014.279v48c0 10.336 6.71 19.128 16 22.266V416h-16.5a7.499 7.499 0 0 0-6.665 4.06L138.415 448H135.5c-4.143 0-7.5 3.358-7.5 7.5s3.357 7.5 7.5 7.5h72a7.5 7.5 0 0 0 7.5-7.5v-32a7.5 7.5 0 0 0-7.5-7.5H191v-10.234c9.29-3.138 16-11.93 16-22.266v-32.513c.167.001.332.013.5.013h48c.168 0 .333-.012.5-.013V383.5c0 10.336 6.71 19.128 16 22.266V416h-16.5a7.5 7.5 0 0 0-7.5 7.5v32a7.5 7.5 0 0 0 7.5 7.5h72c4.143 0 7.5-3.358 7.5-7.5s-3.357-7.5-7.5-7.5h-2.915l-14.42-27.94A7.499 7.499 0 0 0 303.5 416H287v-10.234c9.29-3.138 16-11.93 16-22.266v-48c0-.094-.011-.186-.014-.279C322.405 320.713 335 297.55 335 271.5V239h25v67.865l-11.854 5.927A7.5 7.5 0 0 0 344 319.5v16c0 4.142 3.357 7.5 7.5 7.5s7.5-3.358 7.5-7.5v-11.365l8.5-4.25 8.5 4.25v14.729l-11.854 5.927a7.5 7.5 0 0 0 6.709 13.416l16-8a7.5 7.5 0 0 0 4.146-6.708v-24a7.501 7.501 0 0 0-4.147-6.707zM271.5 15c4.687 0 8.5 3.813 8.5 8.5s-3.813 8.5-8.5 8.5-8.5-3.813-8.5-8.5 3.813-8.5 8.5-8.5zm-80 0c4.687 0 8.5 3.813 8.5 8.5s-3.813 8.5-8.5 8.5-8.5-3.813-8.5-8.5 3.813-8.5 8.5-8.5zm8.5 433h-44.705l8.774-17H200v17zm107.705 0H263v-17h35.931l8.774 17zM367.5 224c-4.687 0-8.5-3.813-8.5-8.5s3.813-8.5 8.5-8.5 8.5 3.813 8.5 8.5-3.813 8.5-8.5 8.5zm-136-153c35.565 0 64.5 28.935 64.5 64.5v8.5H167v-8.5c0-35.565 28.935-64.5 64.5-64.5zM167 159h129v17H167v-17zm-71.5 48c4.687 0 8.5 3.813 8.5 8.5s-3.813 8.5-8.5 8.5-8.5-3.813-8.5-8.5 3.813-8.5 8.5-8.5zm21.903 17c1.027-2.638 1.597-5.503 1.597-8.5s-.57-5.862-1.597-8.5H128v17h-10.597zM183.5 392c-4.687 0-8.5-3.813-8.5-8.5s3.813-8.5 8.5-8.5 8.5 3.813 8.5 8.5-3.813 8.5-8.5 8.5zm8.5-30.403c-2.638-1.027-5.503-1.597-8.5-1.597s-5.862.57-8.5 1.597v-17.572a78.772 78.772 0 0 0 17 5.447v12.125zM143 271.5V191h81v25h-24.5c-17.369 0-31.5 14.131-31.5 31.5s14.131 31.5 31.5 31.5H224v57h-16.5c-35.565 0-64.5-28.935-64.5-64.5zm56.5-7.5c-9.098 0-16.5-7.402-16.5-16.5s7.402-16.5 16.5-16.5h64c9.098 0 16.5 7.402 16.5 16.5s-7.402 16.5-16.5 16.5h-64zm80 128c-4.687 0-8.5-3.813-8.5-8.5s3.813-8.5 8.5-8.5 8.5 3.813 8.5 8.5-3.813 8.5-8.5 8.5zm8.5-30.403c-2.638-1.027-5.503-1.597-8.5-1.597s-5.862.57-8.5 1.597v-12.125a78.772 78.772 0 0 0 17-5.447v17.572zm32-90.097c0 35.565-28.935 64.5-64.5 64.5H239v-57h24.5c17.369 0 31.5-14.131 31.5-31.5S280.869 216 263.5 216H239v-25h81v80.5zm15-64.5h10.597c-1.027 2.638-1.597 5.503-1.597 8.5s.57 5.862 1.597 8.5H335v-17z"/></svg>