<svg xmlns="http://www.w3.org/2000/svg" viewBox="0 0 384.355 384.355" style="enable-background:new 0 0 384.355 384.355" xml:space="preserve"><path d="M151.167 90.128c8.078 0 14.65-6.572 14.65-14.65s-6.572-14.65-14.65-14.65-14.65 6.572-14.65 14.65 6.572 14.65 14.65 14.65zm0-19.3a4.655 4.655 0 0 1 4.65 4.65c0 2.564-2.086 4.65-4.65 4.65s-4.65-2.086-4.65-4.65a4.655 4.655 0 0 1 4.65-4.65zM233.189 90.128c8.078 0 14.65-6.572 14.65-14.65s-6.572-14.65-14.65-14.65-14.649 6.572-14.649 14.65 6.571 14.65 14.649 14.65zm0-19.3a4.655 4.655 0 0 1 4.65 4.65 4.655 4.655 0 0 1-4.65 4.65 4.655 4.655 0 0 1-4.649-4.65 4.655 4.655 0 0 1 4.649-4.65zM87.665 181.8H296.69v-29.3H87.665v29.3zm10-19.3H286.69v9.3H97.665v-9.3zM87.665 279.305H296.69v-29.3H87.665v29.3zm10-19.3H286.69v9.3H97.665v-9.3zM87.665 243.92H296.69v-56.034H87.665v56.034zm10-46.035H286.69v36.034H97.665v-36.034z"/><path d="M338.558 128.376h-5v27.743h-18.22v-21.893h-24.985V98.175C290.353 44.041 246.312 0 192.178 0S94.003 44.041 94.003 98.175v36.051H69.016v21.893h-18.22v-27.743h-5c-14.718 0-26.693 11.975-26.693 26.693v154.59h31.693V187.831h18.22v109.766h18.178v26.054c-10.502 3.151-18.178 12.901-18.178 24.415v36.289h97.017v-36.289c0-11.514-7.676-21.264-18.178-24.415v-26.054h88.643v26.054c-10.502 3.151-18.178 12.901-18.178 24.415v36.289h97.018v-36.289c0-11.514-7.677-21.265-18.179-24.415v-26.054h18.179V187.831h18.22v121.828h31.693v-154.59c.001-14.718-11.974-26.693-26.693-26.693zm-234.555-14.124h7.834v19.97h-7.834v-19.97zm17.834 0h12v19.97h-12v-19.97zm158.516 0v19.97h-9.516v-19.97h9.516zm-19.515 19.97h-12v-19.97h12v19.97zm-22 0h-20v-19.97h20v19.97zm-30 0h-35v-19.97h35v19.97zm-45.001 0h-20v-19.97h20v19.97zM192.178 10c24.721 0 47.094 10.23 63.12 26.674-19.628 5.328-41.275 8.13-63.121 8.13-21.843 0-43.493-2.801-63.124-8.126C145.08 20.232 167.455 10 192.178 10zm-70.314 35.034c21.672 6.394 45.895 9.771 70.314 9.771 24.421 0 48.643-3.379 70.311-9.776 11.206 14.789 17.865 33.204 17.865 53.147v6.077H104.003v-6.077c0-19.942 6.657-38.355 17.861-53.142zM40.796 299.659H29.103v-144.59c0-7.464 4.923-13.799 11.693-15.928v160.518zm10-121.828v-11.712h18.22v11.712h-18.22zm46.398 137.256h40.661v7.49H97.194v-7.49zm3.619 59.268v-17.654h33.424v17.654h-33.424zm55.22-26.289v26.289h-11.796v-27.654H90.813v27.654H79.016v-26.289c0-8.541 6.948-15.489 15.489-15.489h46.04c8.54 0 15.488 6.948 15.488 15.489zm-18.177-42.979H97.194v-7.49h40.661v7.49zm108.643 10h40.661v7.49h-40.661v-7.49zm3.619 59.268v-17.654h33.424v17.654h-33.424zm55.221-26.289v26.289h-11.797v-27.654h-53.424v27.654h-11.797v-26.289c0-8.541 6.948-15.489 15.488-15.489h46.04c8.541 0 15.49 6.948 15.49 15.489zm-18.179-42.979h-40.661v-7.49h40.661v7.49zm18.179-17.49H79.016V144.226h226.322v143.371zm10-109.766v-11.712h18.22v11.712h-18.22zm39.913 121.828h-11.693V139.141c6.77 2.13 11.693 8.465 11.693 15.928v144.59z"/><path d="M114.68 210.906c-1.32 0-2.61.53-3.54 1.46-.93.93-1.46 2.22-1.46 3.54 0 1.31.53 2.6 1.46 3.53.93.93 2.22 1.47 3.54 1.47 1.31 0 2.6-.54 3.53-1.47a5.04 5.04 0 0 0 1.47-3.53c0-1.32-.54-2.61-1.47-3.54s-2.22-1.46-3.53-1.46zM176.68 210.906c-1.32 0-2.61.53-3.54 1.46-.93.93-1.46 2.22-1.46 3.54 0 1.31.53 2.6 1.46 3.53.93.93 2.22 1.47 3.54 1.47 1.31 0 2.6-.54 3.53-1.47a5.04 5.04 0 0 0 1.47-3.53c0-1.32-.54-2.61-1.47-3.54s-2.22-1.46-3.53-1.46zM207.68 210.906c-1.32 0-2.61.53-3.54 1.46s-1.46 2.22-1.46 3.54c0 1.31.53 2.6 1.46 3.53.93.93 2.22 1.47 3.54 1.47 1.31 0 2.6-.54 3.53-1.47a5.04 5.04 0 0 0 1.47-3.53c0-1.32-.54-2.61-1.47-3.54a5.03 5.03 0 0 0-3.53-1.46zM238.68 210.906c-1.32 0-2.61.53-3.54 1.46s-1.46 2.22-1.46 3.54c0 1.31.53 2.6 1.46 3.53.93.93 2.22 1.47 3.54 1.47 1.31 0 2.6-.54 3.53-1.47a5.04 5.04 0 0 0 1.47-3.53c0-1.32-.54-2.61-1.47-3.54a5.03 5.03 0 0 0-3.53-1.46zM145.68 210.906c-1.32 0-2.61.53-3.54 1.46-.93.93-1.46 2.22-1.46 3.54 0 1.31.53 2.6 1.46 3.53.93.93 2.22 1.47 3.54 1.47 1.31 0 2.6-.54 3.53-1.47a5.04 5.04 0 0 0 1.47-3.53c0-1.32-.54-2.61-1.47-3.54s-2.21-1.46-3.53-1.46zM269.68 210.906c-1.32 0-2.61.53-3.54 1.46s-1.46 2.22-1.46 3.54c0 1.31.53 2.6 1.46 3.53.93.93 2.22 1.47 3.54 1.47 1.31 0 2.6-.54 3.53-1.47a5.04 5.04 0 0 0 1.47-3.53c0-1.32-.54-2.61-1.47-3.54a5.03 5.03 0 0 0-3.53-1.46z"/></svg>