<svg xmlns="http://www.w3.org/2000/svg" viewBox="0 0 54 54" style="enable-background:new 0 0 54 54" xml:space="preserve"><path d="M31.992 0h-9.983C13.181 0 6 7.178 6 16v15a1 1 0 0 0 1 1h3v10c0 6.617 5.379 12 11.99 12h10.02C38.621 54 44 48.617 44 42V32h3a1 1 0 0 0 1-1V16c0-8.822-7.181-16-16.008-16zm-9.984 2h9.983c6.333 0 11.691 4.225 13.418 10H8.59c1.727-5.775 7.085-10 13.418-10zM45.84 14c.048.33.085.663.109 1H8.051c.024-.337.062-.67.109-1h37.68zM42 42c0 5.514-4.481 10-9.99 10H21.99C16.481 52 12 47.514 12 42V32h.057l.651 11.073c.193 3.268 3.014 5.927 6.29 5.927H24a1 1 0 0 0 1-1v-3h5v3a1 1 0 0 0 1 1h4.002c3.275 0 6.097-2.659 6.289-5.927L41.943 32H42v10zm-14-8v-2h11.939l-.644 10.956C39.164 45.186 37.238 47 35.002 47H32v-3a1 1 0 0 0-1-1h-7a1 1 0 0 0-1 1v3h-4.002c-2.236 0-4.162-1.814-4.293-4.044L14.061 32H26v2h2zm18-4H8V17h38v13z"/><path d="M14.991 28h24.018A3 3 0 0 0 42 25a3 3 0 0 0-2.991-3H14.991A3 3 0 0 0 12 25a3 3 0 0 0 2.991 3zm0-4h24.018c.555 0 .991.44.991 1 0 .551-.445 1-.991 1H14.991A.986.986 0 0 1 14 25c0-.551.445-1 .991-1zM21 37h12v2H21zM25 40h5v2h-5z"/></svg>