<svg xmlns="http://www.w3.org/2000/svg" viewBox="0 0 512 512" style="enable-background:new 0 0 512 512" xml:space="preserve"><path d="M461.472 478.609v-29.84h-33.391v29.84h-57.074v-13.144h26.133V350.096h-26.133v-30.91c13.554-6.315 22.974-20.06 22.974-35.971 0-18.508-12.743-34.094-29.915-38.451l-49.304-74.106h15.98V72.852l22.132-13.508v56.025h26.133v20.591c-13.554 6.315-22.974 20.06-22.974 35.972 0 15.911 9.421 29.656 22.974 35.971v37.206h33.391v-37.205c13.552-6.315 22.973-20.06 22.973-35.971 0-15.911-9.421-29.657-22.973-35.972V115.37h26.133V0h-85.656v20.224l-62.7 38.271h-17.48V33.391h41.351V0H197.953v33.391h41.351v25.104h-17.477l-62.7-38.271V0H73.47v115.369h26.133v20.591c-13.552 6.315-22.973 20.06-22.973 35.972 0 15.911 9.421 29.656 22.973 35.971v37.206h33.391v-37.205c13.552-6.315 22.973-20.06 22.973-35.971 0-15.911-9.421-29.657-22.973-35.972V115.37h26.133V59.344l22.132 13.508v97.804h15.98l-49.305 74.106c-17.172 4.359-29.914 19.944-29.914 38.451 0 15.911 9.421 29.656 22.973 35.971v30.91H114.86v115.369h26.133v13.144H83.918v-29.84H50.527v29.84H33.909V512h140.475v-46.535h26.133V350.096h-26.133v-30.91a39.909 39.909 0 0 0 19.276-19.276h26.504v-33.391H193.66a39.907 39.907 0 0 0-10.813-13.951l54.498-81.911h37.313l54.498 81.911a39.907 39.907 0 0 0-10.813 13.951h-26.504v33.391h26.504a39.909 39.909 0 0 0 19.276 19.276v30.91h-26.133v115.369h26.133V512h140.474v-33.391h-16.621z"/></svg>